#N canvas 0 26 1366 691 12;
#X obj -18 82 bng 42 250 50 0 empty empty empty 17 7 0 10 -262144 -1
-1;
#X obj 26 193 metro;
#X text 47 92 Start, f 10;
#X msg 34 120 0;
#X text 70 122 Stop;
#N canvas 449 83 450 438 mart380_tones 0;
#X obj 21 204 s tone_0;
#X obj 18 32 loadbang;
#X obj 107 30 inlet;
#X text 14 2 Set the Notes;
#X obj 102 205 s tone_1;
#X obj 183 204 s tone_2;
#X obj 254 204 s tone_3;
#X obj 325 205 s tone_4;
#X msg 18 154 0;
#X msg 95 147 2;
#X msg 182 145 3;
#X msg 249 145 5;
#X msg 319 141 10;
#X obj 84 79 bng 15 250 50 0 empty empty empty 17 7 0 10 -262144 -1
-1;
#X connect 1 0 13 0;
#X connect 2 0 13 0;
#X connect 8 0 0 0;
#X connect 9 0 4 0;
#X connect 10 0 5 0;
#X connect 11 0 6 0;
#X connect 12 0 7 0;
#X connect 13 0 8 0;
#X connect 13 0 9 0;
#X connect 13 0 10 0;
#X connect 13 0 11 0;
#X connect 13 0 12 0;
#X restore 1334 423 pd mart380_tones;
#N canvas 0 26 1366 714 audio_proc 1;
#X text 12 4 Processes Incoming Audio;
#X obj 145 77 adc~;
#X obj 135 321 rev1~;
#X obj 256 327 rev1~;
#X obj 116 445 *~;
#X obj 215 445 *~;
#X obj 507 229 hsl 128 15 0 127 0 0 empty empty empty -2 -8 0 10 -262144
-1 -1 12700 1;
#X obj 525 252 bng 29 250 50 0 empty empty empty 17 7 0 10 -262144
-1 -1;
#X text 561 256 Clear;
#X text 648 225 Length;
#X obj 856 327 vsl 15 128 0 127 0 0 empty empty empty 0 -9 0 10 -262144
-1 -1 12700 1;
#X obj 858 468 / 127;
#X obj 154 488 dac~;
#X obj 346 18 vsl 17 128 0 127 0 0 empty empty empty 0 -9 0 10 -262144
-1 -1 12700 1;
#X text 365 19 Wet/Dry;
#X obj 346 171 / 127;
#X obj 300 215 -;
#X msg 285 182 1;
#X obj 282 155 loadbang;
#X obj 111 257 *~;
#X obj 237 258 *~;
#X floatatom 346 196 5 0 0 0 - - -, f 5;
#X floatatom 300 240 5 0 0 0 - - -, f 5;
#X obj 205 85 trigger float bang;
#X obj 138 369 *~;
#X obj 250 381 *~;
#X obj 522 81 inlet;
#X obj 651 112 inlet;
#X obj 1003 220 loadbang;
#X msg 1003 245 127;
#X connect 1 0 19 0;
#X connect 1 0 2 0;
#X connect 1 1 20 0;
#X connect 1 1 3 0;
#X connect 2 0 24 0;
#X connect 3 0 25 0;
#X connect 4 0 12 0;
#X connect 5 0 12 1;
#X connect 6 0 2 1;
#X connect 6 0 3 1;
#X connect 7 0 3 2;
#X connect 7 0 2 2;
#X connect 10 0 11 0;
#X connect 11 0 5 1;
#X connect 11 0 4 1;
#X connect 13 0 15 0;
#X connect 13 0 23 0;
#X connect 15 0 16 1;
#X connect 15 0 21 0;
#X connect 15 0 24 1;
#X connect 15 0 25 1;
#X connect 16 0 19 1;
#X connect 16 0 22 0;
#X connect 16 0 20 1;
#X connect 17 0 16 0;
#X connect 18 0 17 0;
#X connect 19 0 4 0;
#X connect 20 0 5 0;
#X connect 23 0 17 0;
#X connect 24 0 4 0;
#X connect 25 0 5 0;
#X connect 26 0 6 0;
#X connect 26 0 13 0;
#X connect 27 0 7 0;
#X connect 28 0 29 0;
#X connect 29 0 10 0;
#X coords 0 0 1 1 95 60 0;
#X restore 88 810 pd audio_proc;
#X obj 1331 387 bng 15 250 50 0 empty empty empty 17 7 0 10 -262144
-1 -1;
#N canvas 1366 26 1920 1003 choose_melody 1;
#X obj 14 16 inlet;
#X obj 89 333 r tone_0;
#X obj 59 198 random 5;
#X obj 63 305 sel 0;
#X obj 59 543 makenote;
#X obj 64 602 noteout;
#X obj 62 365 f;
#X msg 17 545 2;
#X obj 286 559 hsl 128 15 0 127 0 0 empty empty empty -2 -8 0 10 -262144
-1 -1 0 1;
#X text 434 559 Duration;
#X text 311 506 Choose Random Velocity;
#X obj 182 360 f;
#X obj 319 361 f;
#X obj 456 369 f;
#X obj 575 366 f;
#X obj 218 333 r tone_1;
#X obj 346 329 r tone_2;
#X obj 483 337 r tone_3;
#X obj 602 334 r tone_4;
#X obj 183 300 sel 1;
#X obj 320 301 sel 2;
#X obj 457 309 sel 3;
#X obj 576 306 sel 4;
#X obj 136 441 inlet;
#X obj 64 436 +;
#X obj 102 78 bng 15 250 50 0 empty empty empty 17 7 0 10 -262144 -1
-1;
#X floatatom 230 206 5 0 0 0 - - -, f 5;
#X floatatom 88 478 5 0 0 0 - - -, f 5;
#X text 10 -5 MAke a Melody;
#X text 65 19 Tempo Input;
#X text 186 441 Offset of Notes;
#X floatatom 233 561 5 0 0 0 - - -, f 5;
#X floatatom 136 466 5 0 0 0 - - -, f 5;
#X obj 233 507 random 16;
#X obj 233 536 + 80;
#X floatatom 269 174 5 0 0 0 - - -, f 5;
#X obj 64 510 +;
#X obj 34 145 random 2;
#X obj 34 170 * 12;
#X obj 97 112 spigot;
#X obj 179 76 random 2;
#X floatatom 179 101 5 0 0 0 - - -, f 5;
#X text 249 72 Determines to Change the Note;
#X text 100 145 Select Octave;
#X text 128 194 Select Pitch;
#X obj 546 513 r duration;
#X connect 0 0 7 0;
#X connect 0 0 25 0;
#X connect 0 0 33 0;
#X connect 0 0 37 0;
#X connect 0 0 40 0;
#X connect 0 0 39 0;
#X connect 1 0 6 1;
#X connect 2 0 3 0;
#X connect 2 0 19 0;
#X connect 2 0 20 0;
#X connect 2 0 21 0;
#X connect 2 0 22 0;
#X connect 2 0 26 0;
#X connect 3 0 6 0;
#X connect 4 0 5 0;
#X connect 4 1 5 1;
#X connect 6 0 24 0;
#X connect 7 0 5 2;
#X connect 8 0 4 2;
#X connect 11 0 24 0;
#X connect 12 0 24 0;
#X connect 13 0 24 0;
#X connect 14 0 24 0;
#X connect 15 0 11 1;
#X connect 16 0 12 1;
#X connect 17 0 13 1;
#X connect 18 0 14 1;
#X connect 19 0 11 0;
#X connect 20 0 12 0;
#X connect 21 0 13 0;
#X connect 22 0 14 0;
#X connect 23 0 24 1;
#X connect 23 0 32 0;
#X connect 24 0 27 0;
#X connect 24 0 36 0;
#X connect 33 0 34 0;
#X connect 34 0 4 1;
#X connect 34 0 31 0;
#X connect 36 0 4 0;
#X connect 37 0 35 0;
#X connect 37 0 38 0;
#X connect 38 0 36 1;
#X connect 39 0 2 0;
#X connect 40 0 39 1;
#X connect 40 0 41 0;
#X connect 45 0 8 0;
#X restore 138 348 pd choose_melody;
#X obj 377 208 * 12;
#X obj 378 178 + 1;
#X obj 377 236 +;
#N canvas 449 164 450 438 mart380_tones1 0;
#X obj 21 204 s tone_0;
#X obj 18 32 loadbang;
#X obj 107 30 inlet;
#X text 14 2 Set the Notes;
#X obj 102 205 s tone_1;
#X obj 183 204 s tone_2;
#X obj 254 204 s tone_3;
#X obj 325 205 s tone_4;
#X msg 18 154 0;
#X msg 95 147 2;
#X obj 84 79 bng 15 250 50 0 empty empty empty 17 7 0 10 -262144 -1
-1;
#X text 259 35 Hi :);
#X msg 321 142 14;
#X msg 182 145 4;
#X msg 249 145 7;
#X connect 1 0 10 0;
#X connect 2 0 10 0;
#X connect 8 0 0 0;
#X connect 9 0 4 0;
#X connect 10 0 8 0;
#X connect 10 0 9 0;
#X connect 10 0 13 0;
#X connect 10 0 14 0;
#X connect 10 0 12 0;
#X connect 12 0 7 0;
#X connect 13 0 5 0;
#X connect 14 0 6 0;
#X restore 1460 422 pd mart380_tones1;
#X obj 1454 385 bng 15 250 50 0 empty empty empty 17 7 0 10 -262144
-1 -1;
#X obj 1594 389 bng 15 250 50 0 empty empty empty 17 7 0 10 -262144
-1 -1;
#N canvas 449 218 450 438 mart380_tones2 0;
#X obj 21 204 s tone_0;
#X obj 18 32 loadbang;
#X obj 107 30 inlet;
#X text 14 2 Set the Notes;
#X obj 102 205 s tone_1;
#X obj 183 204 s tone_2;
#X obj 254 204 s tone_3;
#X obj 325 205 s tone_4;
#X msg 18 154 0;
#X msg 95 147 2;
#X obj 84 79 bng 15 250 50 0 empty empty empty 17 7 0 10 -262144 -1
-1;
#X text 259 35 Hi :);
#X msg 182 145 7;
#X msg 249 145 9;
#X msg 321 142 11;
#X connect 1 0 10 0;
#X connect 2 0 10 0;
#X connect 8 0 0 0;
#X connect 9 0 4 0;
#X connect 10 0 8 0;
#X connect 10 0 9 0;
#X connect 10 0 12 0;
#X connect 10 0 13 0;
#X connect 10 0 14 0;
#X connect 12 0 5 0;
#X connect 13 0 6 0;
#X connect 14 0 7 0;
#X restore 1592 420 pd mart380_tones2;
#N canvas 1366 26 1920 1026 make_chords 0;
#X text 5 9 MAkes Chords based off of the notes;
#X obj 17 47 inlet;
#X text 57 46 Metronome Pulses;
#X obj 50 380 f;
#X obj 66 315 r tone_0;
#X floatatom 81 417 5 0 0 0 - - -, f 5;
#X obj 17 94 bng 15 250 50 0 empty empty empty 17 7 0 10 -262144 -1
-1;
#X obj 59 624 makenote;
#X obj 290 819 noteout;
#X obj 641 523 hsl 128 15 0 127 0 0 empty empty empty -2 -8 0 10 -262144
-1 -1 0 1;
#X obj 639 556 hsl 128 15 0 127 0 0 empty empty empty -2 -8 0 10 -262144
-1 -1 0 1;
#X msg 430 797 3;
#X obj 608 417 inlet;
#X text 654 417 Get Offset;
#X obj 56 501 +;
#X text 786 520 Velocity;
#X text 785 556 Duration;
#X floatatom 609 453 5 0 0 0 - - -, f 5;
#X obj 150 379 f;
#X floatatom 181 416 5 0 0 0 - - -, f 5;
#X obj 253 373 f;
#X floatatom 284 410 5 0 0 0 - - -, f 5;
#X obj 369 366 f;
#X floatatom 400 403 5 0 0 0 - - -, f 5;
#X obj 483 365 f;
#X floatatom 514 402 5 0 0 0 - - -, f 5;
#X obj 166 314 r tone_1;
#X obj 269 308 r tone_2;
#X obj 385 301 r tone_3;
#X obj 499 300 r tone_4;
#X floatatom 19 546 5 0 0 0 - - -, f 5;
#X obj 154 502 +;
#X obj 264 504 +;
#X obj 500 501 +;
#X obj 382 502 +;
#X obj 157 625 makenote;
#X obj 269 624 makenote;
#X obj 385 629 makenote;
#X obj 506 633 makenote;
#X obj 199 64 inlet;
#X text 242 63 Get Number of pulses before re-triggering chord;
#X obj 46 236 bng 33 250 50 0 empty empty empty 17 7 0 10 -262144 -1
-1;
#X obj 45 117 f;
#X obj 45 142 + 1;
#X obj 45 167 %;
#X floatatom 121 168 5 0 0 0 - - -, f 5;
#X floatatom 199 89 5 0 0 0 - - -, f 5;
#X obj 45 203 moses 1;
#X obj 941 519 r duration;
#X obj 740 464 r velocity;
#X connect 1 0 6 0;
#X connect 3 0 5 0;
#X connect 3 0 14 0;
#X connect 4 0 3 1;
#X connect 6 0 42 0;
#X connect 7 0 8 0;
#X connect 7 1 8 1;
#X connect 9 0 7 1;
#X connect 9 0 35 1;
#X connect 9 0 36 1;
#X connect 9 0 37 1;
#X connect 9 0 38 1;
#X connect 10 0 7 2;
#X connect 10 0 35 2;
#X connect 10 0 36 2;
#X connect 10 0 37 2;
#X connect 10 0 38 2;
#X connect 11 0 8 2;
#X connect 12 0 17 0;
#X connect 12 0 14 1;
#X connect 12 0 31 1;
#X connect 12 0 32 1;
#X connect 12 0 34 1;
#X connect 12 0 33 1;
#X connect 14 0 7 0;
#X connect 14 0 30 0;
#X connect 18 0 19 0;
#X connect 18 0 31 0;
#X connect 20 0 21 0;
#X connect 20 0 32 0;
#X connect 22 0 23 0;
#X connect 22 0 34 0;
#X connect 24 0 25 0;
#X connect 24 0 33 0;
#X connect 26 0 18 1;
#X connect 27 0 20 1;
#X connect 28 0 22 1;
#X connect 29 0 24 1;
#X connect 31 0 35 0;
#X connect 32 0 36 0;
#X connect 33 0 38 0;
#X connect 34 0 37 0;
#X connect 35 0 8 0;
#X connect 35 1 8 1;
#X connect 36 0 8 0;
#X connect 36 1 8 1;
#X connect 37 0 8 0;
#X connect 37 1 8 1;
#X connect 38 0 8 0;
#X connect 38 1 8 1;
#X connect 39 0 44 1;
#X connect 39 0 46 0;
#X connect 41 0 3 0;
#X connect 41 0 18 0;
#X connect 41 0 20 0;
#X connect 41 0 22 0;
#X connect 41 0 24 0;
#X connect 41 0 11 0;
#X connect 42 0 43 0;
#X connect 43 0 42 1;
#X connect 43 0 44 0;
#X connect 44 0 45 0;
#X connect 44 0 47 0;
#X connect 47 0 41 0;
#X connect 48 0 10 0;
#X connect 49 0 9 0;
#X restore 468 366 pd make_chords, f 18;
#X msg 707 238 10;
#N canvas 1366 27 959 718 bass_notes 0;
#X text 9 5 Makes the Bass Notes;
#X obj 11 39 inlet;
#X obj 11 64 bng 15 250 50 0 empty empty empty 17 7 0 10 -262144 -1
-1;
#X obj 11 109 f;
#X obj 11 134 + 1;
#X obj 11 159 %;
#X obj 11 184 moses 1;
#X obj 168 58 inlet;
#X text 54 41 Metronome Pulses;
#X text 213 57 Get number of pulses before re-triggering;
#X obj 11 209 bng 51 250 50 0 empty empty empty 17 7 0 10 -262144 -1
-1;
#X obj 22 385 f;
#X obj 43 346 r tone_0;
#X obj 229 364 inlet;
#X text 274 366 Offset;
#X obj 21 433 +;
#X obj 29 513 makenote;
#X obj 172 459 hsl 128 15 0 127 0 0 empty empty empty -2 -8 0 10 -262144
-1 -1 0 1;
#X obj 171 486 hsl 128 15 0 127 0 0 empty empty empty -2 -8 0 10 -262144
-1 -1 0 1;
#X text 309 457 Velocity;
#X text 307 484 Duration;
#X obj 40 580 noteout;
#X msg 171 547 4;
#X obj 434 412 r velocity;
#X obj 437 463 r duration;
#X connect 1 0 2 0;
#X connect 2 0 3 0;
#X connect 3 0 4 0;
#X connect 4 0 5 0;
#X connect 4 0 3 1;
#X connect 5 0 6 0;
#X connect 6 0 10 0;
#X connect 7 0 3 1;
#X connect 10 0 11 0;
#X connect 10 0 22 0;
#X connect 11 0 15 0;
#X connect 12 0 11 1;
#X connect 13 0 15 1;
#X connect 15 0 16 0;
#X connect 16 0 21 0;
#X connect 16 1 21 1;
#X connect 17 0 16 1;
#X connect 18 0 16 2;
#X connect 22 0 21 2;
#X connect 23 0 17 0;
#X connect 24 0 18 0;
#X restore 809 369 pd bass_notes;
#X msg 838 311 1;
#X obj 898 285 max 1;
#X obj 898 310 * 12;
#X obj 780 305 bng 31 250 50 0 empty empty empty 17 7 0 10 -262144
-1 -1;
#X msg 896 239 4;
#X obj 899 335 +;
#X obj 1250 461 s offset;
#X obj 1229 30 bng 59 250 50 0 empty empty empty 17 7 0 10 -128960
-1 -1;
#X obj 1325 29 bng 59 250 50 0 empty empty empty 17 7 0 10 -128960
-1 -1;
#X obj 1421 29 bng 59 250 50 0 empty empty empty 17 7 0 10 -128960
-1 -1;
#X obj 1511 29 bng 59 250 50 0 empty empty empty 17 7 0 10 -128960
-1 -1;
#X obj 1231 134 bng 59 250 50 0 empty empty empty 17 7 0 10 -128960
-1 -1;
#X obj 1329 134 bng 59 250 50 0 empty empty empty 17 7 0 10 -128960
-1 -1;
#X obj 1427 135 bng 59 250 50 0 empty empty empty 17 7 0 10 -128960
-1 -1;
#X obj 1520 136 bng 59 250 50 0 empty empty empty 17 7 0 10 -128960
-1 -1;
#X msg 1148 350 0;
#X msg 1178 389 2;
#X msg 1210 351 5;
#X msg 1235 384 7;
#X msg 1267 352 9;
#X msg 1288 378 10;
#N canvas 0 0 450 300 metronome 0;
#X floatatom 134 155 5 0 0 0 - - -, f 5;
#X text 180 153 BPM;
#X obj 138 180 / 60;
#X text 182 177 BPSecond;
#X text 191 206 Milliseconds per beat;
#X floatatom 138 230 5 0 0 0 - - -, f 5;
#X obj 138 205 /;
#X msg 87 182 1000;
#X floatatom 192 236 5 0 0 0 - - -, f 5;
#X text 238 234 Subdivision;
#X obj 138 254 /;
#X floatatom 192 288 5 0 0 0 - - -, f 5;
#X obj 192 263 max 1;
#X obj 331 4 loadbang;
#X msg 305 106 120;
#X msg 371 105 2;
#X obj 112 340 outlet;
#X connect 0 0 2 0;
#X connect 2 0 6 1;
#X connect 5 0 10 0;
#X connect 6 0 5 0;
#X connect 7 0 6 0;
#X connect 8 0 12 0;
#X connect 10 0 16 0;
#X connect 12 0 10 1;
#X connect 12 0 11 0;
#X connect 13 0 14 0;
#X connect 13 0 15 0;
#X connect 13 0 7 0;
#X connect 14 0 0 0;
#X connect 15 0 8 0;
#X restore 199 112 pd metronome;
#N canvas 1366 26 1920 1003 arpeggio 1;
#N canvas 1366 26 1920 1026 seq_part 1;
#X obj 88 100 sel, f 5;
#X text 148 68 Note Number;
#X obj 89 164 f;
#X floatatom 107 133 5 0 0 0 - - -, f 5;
#X floatatom 110 194 5 0 0 0 - - -, f 5;
#X text 150 132 Note to Play;
#X obj 27 24 inlet;
#X obj 41 245 outlet;
#X text 209 20 Sequencer Part;
#X obj 179 95 inlet;
#X obj 126 31 inlet;
#X obj 41 140 bng 31 250 50 0 empty empty empty 17 7 0 10 -262144 -1
-1;
#X connect 0 0 2 0;
#X connect 0 0 11 0;
#X connect 2 0 4 0;
#X connect 2 0 7 0;
#X connect 3 0 2 1;
#X connect 6 0 0 0;
#X connect 9 0 3 0;
#X connect 10 0 0 1;
#X coords 0 0 1 1 85 60 0;
#X restore 253 556 pd seq_part;
#N canvas 1862 118 450 415 seq_part 0;
#X obj 88 100 sel, f 5;
#X text 148 68 Note Number;
#X obj 89 164 f;
#X floatatom 107 133 5 0 0 0 - - -, f 5;
#X floatatom 110 194 5 0 0 0 - - -, f 5;
#X text 150 132 Note to Play;
#X obj 27 24 inlet;
#X obj 41 245 outlet;
#X text 209 20 Sequencer Part;
#X obj 179 95 inlet;
#X obj 126 31 inlet;
#X connect 0 0 2 0;
#X connect 2 0 4 0;
#X connect 2 0 7 0;
#X connect 3 0 2 1;
#X connect 6 0 0 0;
#X connect 9 0 3 0;
#X connect 10 0 0 1;
#X coords 0 0 1 1 85 60 0;
#X restore 364 556 pd seq_part;
#N canvas 1862 118 450 415 seq_part 0;
#X obj 88 100 sel, f 5;
#X text 148 68 Note Number;
#X obj 89 164 f;
#X floatatom 107 133 5 0 0 0 - - -, f 5;
#X floatatom 110 194 5 0 0 0 - - -, f 5;
#X text 150 132 Note to Play;
#X obj 27 24 inlet;
#X obj 41 245 outlet;
#X text 209 20 Sequencer Part;
#X obj 179 95 inlet;
#X obj 126 31 inlet;
#X connect 0 0 2 0;
#X connect 2 0 4 0;
#X connect 2 0 7 0;
#X connect 3 0 2 1;
#X connect 6 0 0 0;
#X connect 9 0 3 0;
#X connect 10 0 0 1;
#X coords 0 0 1 1 85 60 0;
#X restore 479 556 pd seq_part;
#N canvas 1862 118 450 415 seq_part 0;
#X obj 88 100 sel, f 5;
#X text 148 68 Note Number;
#X obj 89 164 f;
#X floatatom 107 133 5 0 0 0 - - -, f 5;
#X floatatom 110 194 5 0 0 0 - - -, f 5;
#X text 150 132 Note to Play;
#X obj 27 24 inlet;
#X obj 41 245 outlet;
#X text 209 20 Sequencer Part;
#X obj 179 95 inlet;
#X obj 126 31 inlet;
#X connect 0 0 2 0;
#X connect 2 0 4 0;
#X connect 2 0 7 0;
#X connect 3 0 2 1;
#X connect 6 0 0 0;
#X connect 9 0 3 0;
#X connect 10 0 0 1;
#X coords 0 0 1 1 85 60 0;
#X restore 594 556 pd seq_part;
#N canvas 1862 118 450 415 seq_part 1;
#X obj 88 100 sel, f 5;
#X text 148 68 Note Number;
#X obj 89 164 f;
#X floatatom 107 133 5 0 0 0 - - -, f 5;
#X floatatom 110 194 5 0 0 0 - - -, f 5;
#X text 150 132 Note to Play;
#X obj 27 24 inlet;
#X obj 41 245 outlet;
#X text 209 20 Sequencer Part;
#X obj 179 95 inlet;
#X obj 126 31 inlet;
#X floatatom 281 65 5 0 0 0 - - -, f 5;
#X connect 0 0 2 0;
#X connect 2 0 4 0;
#X connect 2 0 7 0;
#X connect 3 0 2 1;
#X connect 6 0 0 0;
#X connect 9 0 3 0;
#X connect 10 0 0 1;
#X connect 10 0 11 0;
#X coords 0 0 1 1 85 60 0;
#X restore 709 556 pd seq_part;
#X msg 253 504 0;
#X msg 364 504 1;
#X msg 479 504 2;
#X msg 594 504 3;
#X msg 709 504 4;
#X obj 253 468 r tone_0;
#X obj 381 468 r tone_1;
#X obj 506 468 r tone_2;
#X obj 621 468 r tone_3;
#X obj 738 468 r tone_4;
#X text 502 361 Creates the Arpeggio from the notes;
#X obj 253 380 loadbang;
#X obj 454 363 mod;
#X obj 102 286 f;
#X obj 102 311 + 1;
#X obj 90 353 /;
#X obj 90 378 int;
#X msg 518 271 5;
#X obj 512 205 loadbang;
#X text 557 272 Number of Notes;
#X obj 217 61 inlet;
#X text 265 66 Metronome input;
#X obj 91 475 %;
#X msg 117 419 3;
#X obj 637 409 hradio 39 0 0 5 empty empty empty 0 -8 0 10 -262144
-1 -1 3;
#X obj 102 211 bng 35 250 50 0 empty empty empty 17 7 0 10 -262144
-1 -1;
#X obj 91 499 +;
#X obj 136 484 max 1;
#X obj 91 524 * 12;
#X obj 453 655 % 24;
#X obj 453 700 +;
#X obj 563 663 r offset;
#X floatatom 557 695 5 0 0 0 - - -, f 5;
#X obj 432 862 +;
#X floatatom 174 455 5 0 0 0 - - -, f 5;
#X obj 151 420 r start_octave;
#X obj 1127 634 makenote;
#X obj 1247 634 hsl 128 15 0 127 0 0 empty empty empty -2 -8 0 10 -262144
-1 -1 0 1;
#X obj 1243 665 hsl 128 15 0 127 0 0 empty empty empty -2 -8 0 10 -262144
-1 -1 0 1;
#X text 1383 630 Velocity;
#X text 1380 663 Duration;
#X text 1282 690 Channel;
#X obj 1136 697 noteout;
#X obj 1247 750 hsl 128 15 0 127 0 0 empty empty empty -2 -8 0 10 -262144
-1 -1 0 1;
#X text 1386 748 Pitch Bend;
#X floatatom 1249 790 5 0 0 0 - - -, f 5;
#X obj 1157 788 ctlout;
#X text 1283 725 Controller;
#X floatatom 1241 726 5 0 127 0 - - -, f 5;
#X floatatom 1238 695 5 0 0 0 - - -, f 5;
#X msg 1567 690 1;
#X text 1158 589 http://zynaddsubfx.sourceforge.net/doc_3.html;
#X floatatom 432 887 5 0 0 0 - - -, f 5;
#X obj 1563 654 loadbang;
#X obj 1492 570 r velocity;
#X obj 1604 571 r duration;
#X obj 247 121 bng 58 250 50 0 empty empty empty 17 7 0 10 -262144
-1 -1;
#X floatatom 22 504 5 0 0 0 - - -, f 5;
#X msg 163 269 0;
#X connect 0 0 34 0;
#X connect 1 0 34 0;
#X connect 2 0 34 0;
#X connect 3 0 34 0;
#X connect 4 0 34 0;
#X connect 5 0 0 1;
#X connect 6 0 1 1;
#X connect 7 0 2 1;
#X connect 8 0 3 1;
#X connect 9 0 4 1;
#X connect 10 0 0 2;
#X connect 11 0 1 2;
#X connect 12 0 2 2;
#X connect 13 0 3 2;
#X connect 14 0 4 2;
#X connect 16 0 5 0;
#X connect 16 0 6 0;
#X connect 16 0 7 0;
#X connect 16 0 8 0;
#X connect 16 0 9 0;
#X connect 17 0 0 0;
#X connect 17 0 1 0;
#X connect 17 0 2 0;
#X connect 17 0 3 0;
#X connect 17 0 4 0;
#X connect 17 0 29 0;
#X connect 18 0 19 0;
#X connect 19 0 18 1;
#X connect 19 0 20 0;
#X connect 19 0 17 0;
#X connect 20 0 21 0;
#X connect 21 0 27 0;
#X connect 22 0 17 1;
#X connect 22 0 20 1;
#X connect 23 0 22 0;
#X connect 23 0 28 0;
#X connect 25 0 18 0;
#X connect 25 0 61 0;
#X connect 27 0 31 0;
#X connect 27 0 62 0;
#X connect 28 0 27 1;
#X connect 30 0 18 0;
#X connect 31 0 33 0;
#X connect 32 0 31 1;
#X connect 33 0 38 0;
#X connect 34 0 35 0;
#X connect 35 0 38 1;
#X connect 36 0 37 0;
#X connect 37 0 35 1;
#X connect 38 0 41 0;
#X connect 38 0 57 0;
#X connect 39 0 32 0;
#X connect 40 0 39 0;
#X connect 41 0 47 0;
#X connect 41 1 47 1;
#X connect 42 0 41 1;
#X connect 43 0 41 2;
#X connect 48 0 50 0;
#X connect 48 0 51 0;
#X connect 53 0 51 1;
#X connect 54 0 47 2;
#X connect 54 0 51 2;
#X connect 55 0 54 0;
#X connect 58 0 55 0;
#X connect 59 0 42 0;
#X connect 60 0 43 0;
#X connect 63 0 18 1;
#X restore 19 350 pd arpeggio;
#X text 8 12 MART380 Project... Using 2 arduinos to generate music.
;
#X text 8 40 We have Exactly 2 Arduinos that pass data from ultrasonic
sensors to the computer via a serial connection.;
#X obj 816 127 loadbang;
#X obj 303 555 s start_octave;
#X msg 304 509 4;
#X obj 419 502 s velocity;
#X obj 505 501 s duration;
#X msg 427 447 127;
#X obj 603 116 r offset;
#X obj 403 109 r start_octave;
#X obj 155 266 spigot;
#X obj 219 225 r enable_all_parts;
#X obj 156 530 s enable_all_parts;
#X msg 150 478 1;
#X msg 198 474 0;
#X text 315 589 Largely Manages Effects;
#X text 134 591 Largely Manages Notes;
#X obj 341 793 s velocity;
#X obj 436 793 s duration;
#X floatatom 408 670 5 0 0 0 - - -, f 5;
#X obj 55 265 bng 28 250 50 0 empty empty empty 17 7 0 10 -262144 -1
-1;
#X floatatom 138 664 5 0 0 0 - - -, f 5;
#X obj 312 453 loadbang;
#X obj 409 720 * -1;
#X floatatom 409 745 5 0 0 0 - - -, f 5;
#X obj 408 694 - 127;
#X obj 25 539 bng 60 250 50 0 empty empty empty 17 7 0 10 -229756 -213513
-1;
#X obj 594 765 s enable_all_parts;
#X obj 130 618 comport 1 9600;
#X obj 336 624 comport 0 9600;
#X text 541 590 Don't use /dev notation here \, as it yields incorrect
mappings;
#X obj 594 710 < 64;
#X obj 223 796 == 0;
#X obj 274 792 == 0;
#X obj 255 836 &&;
#X floatatom 257 890 5 0 0 0 - - -, f 5;
#X text 302 890 Allow for Change of Chords;
#N canvas 1366 26 1920 1026 change_chords 1;
#X obj 22 23 inlet;
#X obj 175 17 inlet;
#X text 78 22 Metronome;
#X text 222 16 Allow Bit;
#X obj 36 77 spigot;
#X obj 209 98 s curr_chords;
#X msg 210 59 0;
#X obj 35 124 f;
#X obj 35 149 + 1;
#X obj 34 193 >= 10;
#X floatatom 121 171 5 0 0 0 - - -, f 5;
#X msg 134 114 0;
#X obj 94 220 spigot;
#X obj 107 444 sel;
#X obj 127 386 loadbang;
#X msg 127 411 0;
#N canvas 1696 176 450 323 notes 0;
#X obj 33 218 s tone_0;
#X obj 30 46 loadbang;
#X obj 119 44 inlet;
#X text 26 16 Set the Notes;
#X obj 114 219 s tone_1;
#X obj 195 218 s tone_2;
#X obj 266 218 s tone_3;
#X obj 337 219 s tone_4;
#X msg 30 168 0;
#X msg 331 155 10;
#X obj 96 93 bng 15 250 50 0 empty empty empty 17 7 0 10 -262144 -1
-1;
#X msg 107 161 3;
#X msg 194 158 5;
#X msg 261 159 7;
#X connect 1 0 10 0;
#X connect 2 0 10 0;
#X connect 8 0 0 0;
#X connect 9 0 7 0;
#X connect 10 0 8 0;
#X connect 10 0 11 0;
#X connect 10 0 12 0;
#X connect 10 0 13 0;
#X connect 10 0 9 0;
#X connect 11 0 4 0;
#X connect 12 0 5 0;
#X connect 13 0 6 0;
#X restore 151 479 pd notes;
#X obj 51 346 f;
#X obj 108 316 r curr_chords;
#X floatatom 6 364 5 0 0 0 - - -, f 5;
#X obj 11 291 spigot;
#X obj 11 316 bng 15 250 50 0 empty empty empty 17 7 0 10 -262144 -1
-1;
#X obj 107 469 bng 15 250 50 0 empty empty empty 17 7 0 10 -262144
-1 -1;
#X obj 1634 483 sel;
#X obj 1654 425 loadbang;
#N canvas 1418 236 450 300 notes 1;
#X obj 33 218 s tone_0;
#X obj 30 46 loadbang;
#X obj 119 44 inlet;
#X text 26 16 Set the Notes;
#X obj 114 219 s tone_1;
#X obj 195 218 s tone_2;
#X obj 266 218 s tone_3;
#X obj 337 219 s tone_4;
#X msg 30 168 0;
#X msg 107 161 2;
#X obj 96 93 bng 15 250 50 0 empty empty empty 17 7 0 10 -262144 -1
-1;
#X msg 194 159 4;
#X msg 261 159 7;
#X msg 331 155 9;
#X connect 1 0 10 0;
#X connect 2 0 10 0;
#X connect 8 0 0 0;
#X connect 9 0 4 0;
#X connect 10 0 8 0;
#X connect 10 0 9 0;
#X connect 10 0 11 0;
#X connect 10 0 12 0;
#X connect 10 0 13 0;
#X connect 11 0 5 0;
#X connect 12 0 6 0;
#X connect 13 0 7 0;
#X restore 1678 518 pd notes;
#X obj 1628 656 s curr_chords;
#X msg 1628 631 0;
#X obj 1634 508 bng 15 250 50 0 empty empty empty 17 7 0 10 -262144
-1 -1;
#X obj 38 678 s curr_chords;
#X obj 36 554 sel 0;
#X obj 101 551 sel 1;
#X obj 36 579 bng 15 250 50 0 empty empty empty 17 7 0 10 -262144 -1
-1;
#X obj 101 576 bng 15 250 50 0 empty empty empty 17 7 0 10 -262144
-1 -1;
#X text 158 441 Chord 0;
#X obj 80 511 random 5;
#X obj 161 572 bng 15 250 50 0 empty empty empty 17 7 0 10 -262144
-1 -1;
#X obj 213 575 bng 15 250 50 0 empty empty empty 17 7 0 10 -262144
-1 -1;
#X obj 267 575 bng 15 250 50 0 empty empty empty 17 7 0 10 -262144
-1 -1;
#X obj 162 547 sel 2;
#X obj 214 550 sel 3;
#X obj 267 550 sel 4;
#X msg 37 612 1;
#X msg 102 609 2;
#X msg 163 605 3;
#X msg 214 608 4;
#X msg 268 608 5;
#X obj 443 449 sel;
#X obj 463 391 loadbang;
#N canvas 916 203 450 323 notes 0;
#X obj 33 218 s tone_0;
#X obj 30 46 loadbang;
#X obj 119 44 inlet;
#X text 26 16 Set the Notes;
#X obj 114 219 s tone_1;
#X obj 195 218 s tone_2;
#X obj 266 218 s tone_3;
#X obj 337 219 s tone_4;
#X msg 30 168 0;
#X obj 96 93 bng 15 250 50 0 empty empty empty 17 7 0 10 -262144 -1
-1;
#X msg 261 159 7;
#X msg 107 161 2;
#X msg 194 158 4;
#X msg 331 155 11;
#X connect 1 0 9 0;
#X connect 2 0 9 0;
#X connect 8 0 0 0;
#X connect 9 0 8 0;
#X connect 9 0 11 0;
#X connect 9 0 12 0;
#X connect 9 0 10 0;
#X connect 9 0 13 0;
#X connect 10 0 6 0;
#X connect 11 0 4 0;
#X connect 12 0 5 0;
#X connect 13 0 7 0;
#X restore 487 485 pd notes;
#X obj 443 474 bng 15 250 50 0 empty empty empty 17 7 0 10 -262144
-1 -1;
#X obj 374 683 s curr_chords;
#X obj 372 559 sel 0;
#X obj 437 556 sel 1;
#X obj 372 584 bng 15 250 50 0 empty empty empty 17 7 0 10 -262144
-1 -1;
#X obj 437 581 bng 15 250 50 0 empty empty empty 17 7 0 10 -262144
-1 -1;
#X obj 497 577 bng 15 250 50 0 empty empty empty 17 7 0 10 -262144
-1 -1;
#X obj 549 580 bng 15 250 50 0 empty empty empty 17 7 0 10 -262144
-1 -1;
#X obj 498 552 sel 2;
#X obj 550 555 sel 3;
#X msg 438 614 2;
#X msg 499 610 3;
#X msg 550 613 4;
#X obj 416 516 random 4;
#X text 494 446 Chord 1;
#X obj 222 511 s offset;
#X msg 220 476 0;
#X obj 572 489 s offset;
#X msg 570 454 -4;
#X msg 373 617 0;
#X obj 741 465 sel;
#X obj 761 407 loadbang;
#N canvas 1418 236 450 300 notes 0;
#X obj 33 218 s tone_0;
#X obj 30 46 loadbang;
#X obj 119 44 inlet;
#X text 26 16 Set the Notes;
#X obj 114 219 s tone_1;
#X obj 195 218 s tone_2;
#X obj 266 218 s tone_3;
#X obj 337 219 s tone_4;
#X msg 30 168 0;
#X msg 331 155 10;
#X obj 96 93 bng 15 250 50 0 empty empty empty 17 7 0 10 -262144 -1
-1;
#X msg 107 161 3;
#X msg 194 159 5;
#X msg 261 159 7;
#X connect 1 0 10 0;
#X connect 2 0 10 0;
#X connect 8 0 0 0;
#X connect 9 0 7 0;
#X connect 10 0 8 0;
#X connect 10 0 11 0;
#X connect 10 0 12 0;
#X connect 10 0 13 0;
#X connect 10 0 9 0;
#X connect 11 0 4 0;
#X connect 12 0 5 0;
#X connect 13 0 6 0;
#X restore 785 500 pd notes;
#X obj 691 656 s curr_chords;
#X obj 741 490 bng 15 250 50 0 empty empty empty 17 7 0 10 -262144
-1 -1;
#X obj 734 530 random 2;
#X obj 690 573 sel 0;
#X obj 755 570 sel 1;
#X obj 690 598 bng 15 250 50 0 empty empty empty 17 7 0 10 -262144
-1 -1;
#X obj 755 595 bng 15 250 50 0 empty empty empty 17 7 0 10 -262144
-1 -1;
#X obj 859 525 s offset;
#X text 802 460 Chord 2;
#X msg 463 415 1;
#X msg 761 432 2;
#X msg 857 490 -5;
#X msg 691 631 3;
#X msg 756 628 4;
#X obj 1060 483 sel;
#X obj 1080 425 loadbang;
#N canvas 1418 236 450 300 notes 0;
#X obj 33 218 s tone_0;
#X obj 30 46 loadbang;
#X obj 119 44 inlet;
#X text 26 16 Set the Notes;
#X obj 114 219 s tone_1;
#X obj 195 218 s tone_2;
#X obj 266 218 s tone_3;
#X obj 337 219 s tone_4;
#X msg 30 168 0;
#X msg 331 155 10;
#X obj 96 93 bng 15 250 50 0 empty empty empty 17 7 0 10 -262144 -1
-1;
#X msg 107 161 3;
#X msg 194 159 5;
#X msg 261 159 7;
#X connect 1 0 10 0;
#X connect 2 0 10 0;
#X connect 8 0 0 0;
#X connect 9 0 7 0;
#X connect 10 0 8 0;
#X connect 10 0 11 0;
#X connect 10 0 12 0;
#X connect 10 0 13 0;
#X connect 10 0 9 0;
#X connect 11 0 4 0;
#X connect 12 0 5 0;
#X connect 13 0 6 0;
#X restore 1104 518 pd notes;
#X obj 1010 674 s curr_chords;
#X obj 1060 508 bng 15 250 50 0 empty empty empty 17 7 0 10 -262144
-1 -1;
#X obj 1053 548 random 2;
#X obj 1009 591 sel 0;
#X obj 1074 588 sel 1;
#X obj 1009 616 bng 15 250 50 0 empty empty empty 17 7 0 10 -262144
-1 -1;
#X obj 1074 613 bng 15 250 50 0 empty empty empty 17 7 0 10 -262144
-1 -1;
#X obj 1178 543 s offset;
#X msg 1080 449 3;
#X text 1121 478 Chord 3;
#X msg 1010 649 2;
#X msg 1075 646 1;
#X msg 1176 508 -7;
#X obj 1341 479 sel;
#X obj 1361 421 loadbang;
#N canvas 916 263 450 300 notes 0;
#X obj 33 218 s tone_0;
#X obj 30 46 loadbang;
#X obj 119 44 inlet;
#X text 26 16 Set the Notes;
#X obj 114 219 s tone_1;
#X obj 195 218 s tone_2;
#X obj 266 218 s tone_3;
#X obj 337 219 s tone_4;
#X msg 30 168 0;
#X obj 96 93 bng 15 250 50 0 empty empty empty 17 7 0 10 -262144 -1
-1;
#X msg 261 159 7;
#X msg 107 161 2;
#X msg 194 159 4;
#X msg 331 155 11;
#X connect 1 0 9 0;
#X connect 2 0 9 0;
#X connect 8 0 0 0;
#X connect 9 0 8 0;
#X connect 9 0 11 0;
#X connect 9 0 12 0;
#X connect 9 0 10 0;
#X connect 9 0 13 0;
#X connect 10 0 6 0;
#X connect 11 0 4 0;
#X connect 12 0 5 0;
#X connect 13 0 7 0;
#X restore 1385 514 pd notes;
#X obj 1291 670 s curr_chords;
#X obj 1341 504 bng 15 250 50 0 empty empty empty 17 7 0 10 -262144
-1 -1;
#X obj 1334 544 random 2;
#X obj 1290 587 sel 0;
#X obj 1355 584 sel 1;
#X obj 1290 612 bng 15 250 50 0 empty empty empty 17 7 0 10 -262144
-1 -1;
#X obj 1355 609 bng 15 250 50 0 empty empty empty 17 7 0 10 -262144
-1 -1;
#X obj 1459 539 s offset;
#X msg 1291 645 3;
#X msg 1356 642 4;
#X msg 1361 446 4;
#X text 1402 474 Chord 4;
#X msg 1457 504 -9;
#X text 1698 480 Chord 5;
#X msg 1654 450 5;
#X obj 1777 547 s offset;
#X msg 1775 512 -2;
#X connect 0 0 4 0;
#X connect 0 0 12 0;
#X connect 0 0 20 0;
#X connect 1 0 4 1;
#X connect 4 0 7 0;
#X connect 6 0 5 0;
#X connect 7 0 8 0;
#X connect 8 0 7 1;
#X connect 8 0 9 0;
#X connect 8 0 10 0;
#X connect 9 0 12 1;
#X connect 9 0 20 1;
#X connect 11 0 7 1;
#X connect 12 0 11 0;
#X connect 13 0 16 0;
#X connect 13 0 22 0;
#X connect 13 0 66 0;
#X connect 14 0 15 0;
#X connect 15 0 13 1;
#X connect 17 0 13 0;
#X connect 17 0 19 0;
#X connect 17 0 23 0;
#X connect 17 0 47 0;
#X connect 17 0 70 0;
#X connect 17 0 87 0;
#X connect 17 0 103 0;
#X connect 18 0 17 1;
#X connect 20 0 17 0;
#X connect 20 0 21 0;
#X connect 22 0 35 0;
#X connect 23 0 25 0;
#X connect 23 0 27 0;
#X connect 23 0 28 0;
#X connect 23 0 122 0;
#X connect 24 0 120 0;
#X connect 27 0 26 0;
#X connect 30 0 42 0;
#X connect 30 0 32 0;
#X connect 31 0 43 0;
#X connect 31 0 33 0;
#X connect 35 0 30 0;
#X connect 35 0 31 0;
#X connect 35 0 39 0;
#X connect 35 0 40 0;
#X connect 35 0 41 0;
#X connect 39 0 44 0;
#X connect 39 0 36 0;
#X connect 40 0 45 0;
#X connect 40 0 37 0;
#X connect 41 0 46 0;
#X connect 41 0 38 0;
#X connect 42 0 29 0;
#X connect 43 0 29 0;
#X connect 44 0 29 0;
#X connect 45 0 29 0;
#X connect 46 0 29 0;
#X connect 47 0 49 0;
#X connect 47 0 50 0;
#X connect 47 0 68 0;
#X connect 48 0 82 0;
#X connect 50 0 63 0;
#X connect 52 0 69 0;
#X connect 52 0 54 0;
#X connect 53 0 60 0;
#X connect 53 0 55 0;
#X connect 58 0 61 0;
#X connect 58 0 56 0;
#X connect 59 0 62 0;
#X connect 59 0 57 0;
#X connect 60 0 51 0;
#X connect 61 0 51 0;
#X connect 62 0 51 0;
#X connect 63 0 52 0;
#X connect 63 0 53 0;
#X connect 63 0 58 0;
#X connect 63 0 59 0;
#X connect 66 0 65 0;
#X connect 68 0 67 0;
#X connect 69 0 51 0;
#X connect 70 0 72 0;
#X connect 70 0 74 0;
#X connect 70 0 75 0;
#X connect 70 0 84 0;
#X connect 71 0 83 0;
#X connect 75 0 76 0;
#X connect 75 0 77 0;
#X connect 76 0 85 0;
#X connect 76 0 78 0;
#X connect 77 0 86 0;
#X connect 77 0 79 0;
#X connect 82 0 47 1;
#X connect 83 0 70 1;
#X connect 84 0 80 0;
#X connect 85 0 73 0;
#X connect 86 0 73 0;
#X connect 87 0 89 0;
#X connect 87 0 91 0;
#X connect 87 0 92 0;
#X connect 87 0 102 0;
#X connect 88 0 98 0;
#X connect 92 0 93 0;
#X connect 92 0 94 0;
#X connect 93 0 100 0;
#X connect 93 0 95 0;
#X connect 94 0 101 0;
#X connect 94 0 96 0;
#X connect 98 0 87 1;
#X connect 100 0 90 0;
#X connect 101 0 90 0;
#X connect 102 0 97 0;
#X connect 103 0 105 0;
#X connect 103 0 107 0;
#X connect 103 0 108 0;
#X connect 103 0 118 0;
#X connect 104 0 116 0;
#X connect 108 0 109 0;
#X connect 108 0 110 0;
#X connect 109 0 114 0;
#X connect 109 0 111 0;
#X connect 110 0 115 0;
#X connect 110 0 112 0;
#X connect 114 0 106 0;
#X connect 115 0 106 0;
#X connect 116 0 103 1;
#X connect 118 0 113 0;
#X connect 120 0 23 1;
#X connect 122 0 121 0;
#X restore 249 951 pd change_chords;
#X obj 1019 236 s curr_chords;
#X msg 1018 187 -1;
#X obj 1000 87 bng 74 250 50 0 empty empty empty 17 7 0 10 -262144
-1 -1;
#X connect 0 0 1 0;
#X connect 1 0 10 0;
#X connect 1 0 41 0;
#X connect 1 0 52 0;
#X connect 1 0 62 0;
#X connect 1 0 79 0;
#X connect 3 0 1 0;
#X connect 7 0 5 0;
#X connect 9 0 11 0;
#X connect 10 0 9 0;
#X connect 11 0 8 1;
#X connect 11 0 16 2;
#X connect 13 0 12 0;
#X connect 14 0 15 0;
#X connect 17 0 16 1;
#X connect 19 0 18 1;
#X connect 20 0 21 0;
#X connect 21 0 24 0;
#X connect 22 0 18 0;
#X connect 23 0 20 0;
#X connect 24 0 18 2;
#X connect 26 0 35 0;
#X connect 26 0 7 0;
#X connect 27 0 36 0;
#X connect 27 0 7 0;
#X connect 28 0 39 0;
#X connect 28 0 7 0;
#X connect 30 0 7 0;
#X connect 30 0 34 0;
#X connect 31 0 14 0;
#X connect 31 0 38 0;
#X connect 32 0 37 0;
#X connect 32 0 13 0;
#X connect 34 0 25 0;
#X connect 35 0 25 0;
#X connect 36 0 25 0;
#X connect 37 0 25 0;
#X connect 38 0 25 0;
#X connect 39 0 25 0;
#X connect 40 0 1 1;
#X connect 44 0 17 0;
#X connect 44 0 19 0;
#X connect 46 0 45 0;
#X connect 49 0 47 0;
#X connect 49 0 48 0;
#X connect 50 0 11 1;
#X connect 50 0 24 1;
#X connect 50 0 23 0;
#X connect 51 0 10 0;
#X connect 52 0 8 0;
#X connect 52 0 16 0;
#X connect 52 0 18 0;
#X connect 53 0 52 1;
#X connect 55 0 54 0;
#X connect 56 0 54 0;
#X connect 61 0 67 0;
#X connect 64 0 46 0;
#X connect 65 0 66 0;
#X connect 66 0 59 0;
#X connect 66 0 60 0;
#X connect 67 0 65 0;
#X connect 68 0 6 1;
#X connect 70 0 63 0;
#X connect 70 0 6 0;
#X connect 70 0 74 0;
#X connect 71 0 61 0;
#X connect 71 0 73 0;
#X connect 71 0 75 0;
#X connect 73 0 69 0;
#X connect 74 0 76 0;
#X connect 75 0 76 1;
#X connect 76 0 77 0;
#X connect 77 0 79 1;
#X connect 81 0 80 0;
#X connect 82 0 81 0;
